<?xml version="1.0" encoding="UTF-8" standalone="no"?>
<!DOCTYPE svg PUBLIC "-//W3C//DTD SVG 1.1//EN" "http://www.w3.org/Graphics/SVG/1.1/DTD/svg11.dtd">
<svg xmlns="http://www.w3.org/2000/svg" version="1.1" viewBox="0.00 0.00 242.00 55.00">
<g stroke-width="2.00" fill="none" stroke-linecap="butt">
<path stroke="#80d9c4" vector-effect="non-scaling-stroke" d="
  M 33.51 24.04
  L 33.50 30.63
  Q 33.49 31.25 32.87 31.25
  L 26.00 31.25
  Q 25.25 31.25 25.25 30.50
  L 25.25 11.76
  Q 25.25 11.26 25.75 11.26
  C 30.94 11.24 45.63 8.87 45.70 16.56
  Q 45.82 29.61 45.73 42.72
  Q 45.72 43.23 45.21 43.24
  Q 31.93 43.28 18.64 43.24
  C 10.80 43.22 13.23 28.57 13.26 23.50
  Q 13.27 23.00 13.77 23.00
  L 16.31 23.00
  Q 16.86 23.00 16.86 22.44
  L 16.86 17.31
  Q 16.86 16.75 16.31 16.75
  L 7.31 16.75
  Q 6.83 16.75 6.82 17.23
  C 6.64 24.31 5.38 38.59 8.74 44.23
  Q 11.83 49.40 19.25 49.44
  Q 33.53 49.51 47.81 49.48
  C 49.91 49.47 51.99 48.85 51.99 46.50
  Q 52.02 32.62 51.99 18.73
  C 51.96 7.31 46.08 5.03 35.40 5.00
  Q 27.49 4.97 19.53 5.01
  Q 19.02 5.01 19.01 5.53
  Q 18.97 20.14 19.02 34.75
  C 19.02 36.29 20.60 37.45 22.21 37.47
  Q 30.72 37.60 39.39 37.46
  Q 39.95 37.45 39.96 36.90
  Q 40.10 29.09 39.97 21.29
  C 39.86 14.78 32.36 16.72 27.98 16.76
  Q 27.40 16.77 27.41 17.36
  L 27.48 22.77
  Q 27.48 23.25 27.96 23.25
  L 32.72 23.25
  Q 33.51 23.25 33.51 24.04"
/>
<path stroke="#80d9c4" vector-effect="non-scaling-stroke" d="
  M 229.18 10.67
  C 231.25 9.15 230.17 7.74 230.54 5.69
  Q 230.62 5.23 230.17 5.11
  Q 227.09 4.29 224.92 6.10
  Q 224.50 6.46 224.50 7.01
  L 224.50 10.22
  Q 224.50 10.64 224.91 10.76
  Q 227.91 11.62 229.18 10.67"
/>
<path stroke="#80d9c4" vector-effect="non-scaling-stroke" d="
  M 78.25 19.22
  L 78.25 12.66
  Q 78.25 12.00 77.69 11.64
  Q 75.51 10.24 72.78 10.83
  Q 72.25 10.95 72.25 11.49
  L 72.25 42.50
  Q 72.25 43.04 72.77 43.16
  Q 75.81 43.87 78.07 41.93
  Q 78.44 41.60 78.87 41.86
  C 93.14 50.38 107.04 28.49 91.94 19.82
  Q 85.72 16.25 78.97 19.67
  Q 78.25 20.03 78.25 19.22"
/>
<path stroke="#80d9c4" vector-effect="non-scaling-stroke" d="
  M 130.78 30.85
  A 12.83 12.83 0.0 0 0 117.95 18.02
  A 12.83 12.83 0.0 0 0 105.12 30.85
  A 12.83 12.83 0.0 0 0 117.95 43.68
  A 12.83 12.83 0.0 0 0 130.78 30.85"
/>
<path stroke="#80d9c4" vector-effect="non-scaling-stroke" d="
  M 143.93 19.20
  Q 141.61 17.66 138.76 18.35
  Q 138.25 18.47 138.25 19.00
  L 138.25 42.75
  Q 138.25 43.25 138.75 43.25
  L 143.99 43.25
  Q 144.50 43.25 144.50 42.74
  Q 144.49 35.91 144.52 29.09
  C 144.54 23.25 151.00 22.69 154.19 26.70
  Q 154.52 27.12 154.54 27.66
  L 154.85 41.31
  Q 154.86 41.91 155.33 42.28
  Q 157.37 43.93 160.26 43.12
  Q 160.76 42.98 160.76 42.46
  C 160.73 36.91 161.55 28.75 159.63 24.33
  C 157.38 19.11 150.70 16.35 144.86 19.26
  Q 144.38 19.50 143.93 19.20"
/>
<path stroke="#80d9c4" vector-effect="non-scaling-stroke" d="
  M 209.96 19.88
  C 201.70 15.80 192.50 19.08 190.41 28.13
  C 187.87 39.10 199.61 46.32 209.56 42.02
  Q 210.72 41.52 211.13 42.59
  Q 211.36 43.19 212.00 43.20
  L 215.61 43.27
  Q 216.25 43.28 216.25 42.64
  L 216.25 19.04
  Q 216.25 18.63 215.85 18.56
  Q 212.97 18.07 210.73 19.80
  Q 210.37 20.08 209.96 19.88"
/>
<path stroke="#80d9c4" vector-effect="non-scaling-stroke" d="
  M 174.06 25.03
  Q 176.01 22.70 178.53 24.49
  Q 178.99 24.82 179.50 24.59
  L 183.06 23.00
  Q 183.73 22.70 183.30 22.10
  C 174.98 10.70 160.43 26.40 172.80 31.69
  Q 174.86 32.57 176.94 33.38
  C 180.45 34.75 179.05 38.72 175.65 37.89
  Q 175.15 37.77 174.76 37.44
  Q 171.69 34.85 167.93 37.09
  Q 167.54 37.32 167.70 37.74
  C 170.99 46.23 183.32 44.87 184.62 36.39
  C 185.62 29.89 179.34 28.64 174.72 27.23
  A 1.38 1.37 28.5 0 1 174.06 25.03"
/>
<path stroke="#80d9c4" vector-effect="non-scaling-stroke" d="
  M 230.47 41.06
  L 230.56 18.66
  Q 230.56 18.25 230.16 18.29
  L 226.49 18.59
  A 2.18 2.18 0.0 0 0 224.50 20.76
  L 224.50 42.50
  Q 224.50 42.99 224.99 43.07
  Q 227.81 43.53 229.95 42.04
  Q 230.47 41.68 230.47 41.06"
/>
<path stroke="#80d9c4" vector-effect="non-scaling-stroke" d="
  M 92.16 30.78
  A 6.88 6.88 0.0 0 0 85.28 23.90
  A 6.88 6.88 0.0 0 0 78.40 30.78
  A 6.88 6.88 0.0 0 0 85.28 37.66
  A 6.88 6.88 0.0 0 0 92.16 30.78"
/>
<path stroke="#80d9c4" vector-effect="non-scaling-stroke" d="
  M 124.75 30.82
  A 6.78 6.78 0.0 0 0 117.97 24.04
  A 6.78 6.78 0.0 0 0 111.19 30.82
  A 6.78 6.78 0.0 0 0 117.97 37.60
  A 6.78 6.78 0.0 0 0 124.75 30.82"
/>
<path stroke="#80d9c4" vector-effect="non-scaling-stroke" d="
  M 210.11 30.77
  A 6.84 6.84 0.0 0 0 203.27 23.93
  A 6.84 6.84 0.0 0 0 196.43 30.77
  A 6.84 6.84 0.0 0 0 203.27 37.61
  A 6.84 6.84 0.0 0 0 210.11 30.77"
/>
</g>
<path fill="#ffffff" d="
  M 0.00 0.00
  L 242.00 0.00
  L 242.00 55.00
  L 0.00 55.00
  L 0.00 0.00
  Z
  M 33.51 24.04
  L 33.50 30.63
  Q 33.49 31.25 32.87 31.25
  L 26.00 31.25
  Q 25.25 31.25 25.25 30.50
  L 25.25 11.76
  Q 25.25 11.26 25.75 11.26
  C 30.94 11.24 45.63 8.87 45.70 16.56
  Q 45.82 29.61 45.73 42.72
  Q 45.72 43.23 45.21 43.24
  Q 31.93 43.28 18.64 43.24
  C 10.80 43.22 13.23 28.57 13.26 23.50
  Q 13.27 23.00 13.77 23.00
  L 16.31 23.00
  Q 16.86 23.00 16.86 22.44
  L 16.86 17.31
  Q 16.86 16.75 16.31 16.75
  L 7.31 16.75
  Q 6.83 16.75 6.82 17.23
  C 6.64 24.31 5.38 38.59 8.74 44.23
  Q 11.83 49.40 19.25 49.44
  Q 33.53 49.51 47.81 49.48
  C 49.91 49.47 51.99 48.85 51.99 46.50
  Q 52.02 32.62 51.99 18.73
  C 51.96 7.31 46.08 5.03 35.40 5.00
  Q 27.49 4.97 19.53 5.01
  Q 19.02 5.01 19.01 5.53
  Q 18.97 20.14 19.02 34.75
  C 19.02 36.29 20.60 37.45 22.21 37.47
  Q 30.72 37.60 39.39 37.46
  Q 39.95 37.45 39.96 36.90
  Q 40.10 29.09 39.97 21.29
  C 39.86 14.78 32.36 16.72 27.98 16.76
  Q 27.40 16.77 27.41 17.36
  L 27.48 22.77
  Q 27.48 23.25 27.96 23.25
  L 32.72 23.25
  Q 33.51 23.25 33.51 24.04
  Z
  M 229.18 10.67
  C 231.25 9.15 230.17 7.74 230.54 5.69
  Q 230.62 5.23 230.17 5.11
  Q 227.09 4.29 224.92 6.10
  Q 224.50 6.46 224.50 7.01
  L 224.50 10.22
  Q 224.50 10.64 224.91 10.76
  Q 227.91 11.62 229.18 10.67
  Z
  M 78.25 19.22
  L 78.25 12.66
  Q 78.25 12.00 77.69 11.64
  Q 75.51 10.24 72.78 10.83
  Q 72.25 10.95 72.25 11.49
  L 72.25 42.50
  Q 72.25 43.04 72.77 43.16
  Q 75.81 43.87 78.07 41.93
  Q 78.44 41.60 78.87 41.86
  C 93.14 50.38 107.04 28.49 91.94 19.82
  Q 85.72 16.25 78.97 19.67
  Q 78.25 20.03 78.25 19.22
  Z
  M 130.78 30.85
  A 12.83 12.83 0.0 0 0 117.95 18.02
  A 12.83 12.83 0.0 0 0 105.12 30.85
  A 12.83 12.83 0.0 0 0 117.95 43.68
  A 12.83 12.83 0.0 0 0 130.78 30.85
  Z
  M 143.93 19.20
  Q 141.61 17.66 138.76 18.35
  Q 138.25 18.47 138.25 19.00
  L 138.25 42.75
  Q 138.25 43.25 138.75 43.25
  L 143.99 43.25
  Q 144.50 43.25 144.50 42.74
  Q 144.49 35.91 144.52 29.09
  C 144.54 23.25 151.00 22.69 154.19 26.70
  Q 154.52 27.12 154.54 27.66
  L 154.85 41.31
  Q 154.86 41.91 155.33 42.28
  Q 157.37 43.93 160.26 43.12
  Q 160.76 42.98 160.76 42.46
  C 160.73 36.91 161.55 28.75 159.63 24.33
  C 157.38 19.11 150.70 16.35 144.86 19.26
  Q 144.38 19.50 143.93 19.20
  Z
  M 209.96 19.88
  C 201.70 15.80 192.50 19.08 190.41 28.13
  C 187.87 39.10 199.61 46.32 209.56 42.02
  Q 210.72 41.52 211.13 42.59
  Q 211.36 43.19 212.00 43.20
  L 215.61 43.27
  Q 216.25 43.28 216.25 42.64
  L 216.25 19.04
  Q 216.25 18.63 215.85 18.56
  Q 212.97 18.07 210.73 19.80
  Q 210.37 20.08 209.96 19.88
  Z
  M 174.06 25.03
  Q 176.01 22.70 178.53 24.49
  Q 178.99 24.82 179.50 24.59
  L 183.06 23.00
  Q 183.73 22.70 183.30 22.10
  C 174.98 10.70 160.43 26.40 172.80 31.69
  Q 174.86 32.57 176.94 33.38
  C 180.45 34.75 179.05 38.72 175.65 37.89
  Q 175.15 37.77 174.76 37.44
  Q 171.69 34.85 167.93 37.09
  Q 167.54 37.32 167.70 37.74
  C 170.99 46.23 183.32 44.87 184.62 36.39
  C 185.62 29.89 179.34 28.64 174.72 27.23
  A 1.38 1.37 28.5 0 1 174.06 25.03
  Z
  M 230.47 41.06
  L 230.56 18.66
  Q 230.56 18.25 230.16 18.29
  L 226.49 18.59
  A 2.18 2.18 0.0 0 0 224.50 20.76
  L 224.50 42.50
  Q 224.50 42.99 224.99 43.07
  Q 227.81 43.53 229.95 42.04
  Q 230.47 41.68 230.47 41.06
  Z"
/>
<path fill="#00b289" d="
  M 32.72 23.25
  L 27.96 23.25
  Q 27.48 23.25 27.48 22.77
  L 27.41 17.36
  Q 27.40 16.77 27.98 16.76
  C 32.36 16.72 39.86 14.78 39.97 21.29
  Q 40.10 29.09 39.96 36.90
  Q 39.95 37.45 39.39 37.46
  Q 30.72 37.60 22.21 37.47
  C 20.60 37.45 19.02 36.29 19.02 34.75
  Q 18.97 20.14 19.01 5.53
  Q 19.02 5.01 19.53 5.01
  Q 27.49 4.97 35.40 5.00
  C 46.08 5.03 51.96 7.31 51.99 18.73
  Q 52.02 32.62 51.99 46.50
  C 51.99 48.85 49.91 49.47 47.81 49.48
  Q 33.53 49.51 19.25 49.44
  Q 11.83 49.40 8.74 44.23
  C 5.38 38.59 6.64 24.31 6.82 17.23
  Q 6.83 16.75 7.31 16.75
  L 16.31 16.75
  Q 16.86 16.75 16.86 17.31
  L 16.86 22.44
  Q 16.86 23.00 16.31 23.00
  L 13.77 23.00
  Q 13.27 23.00 13.26 23.50
  C 13.23 28.57 10.80 43.22 18.64 43.24
  Q 31.93 43.28 45.21 43.24
  Q 45.72 43.23 45.73 42.72
  Q 45.82 29.61 45.70 16.56
  C 45.63 8.87 30.94 11.24 25.75 11.26
  Q 25.25 11.26 25.25 11.76
  L 25.25 30.50
  Q 25.25 31.25 26.00 31.25
  L 32.87 31.25
  Q 33.49 31.25 33.50 30.63
  L 33.51 24.04
  Q 33.51 23.25 32.72 23.25
  Z"
/>
<path fill="#00b289" d="
  M 230.54 5.69
  C 230.17 7.74 231.25 9.15 229.18 10.67
  Q 227.91 11.62 224.91 10.76
  Q 224.50 10.64 224.50 10.22
  L 224.50 7.01
  Q 224.50 6.46 224.92 6.10
  Q 227.09 4.29 230.17 5.11
  Q 230.62 5.23 230.54 5.69
  Z"
/>
<path fill="#00b289" d="
  M 78.97 19.67
  Q 85.72 16.25 91.94 19.82
  C 107.04 28.49 93.14 50.38 78.87 41.86
  Q 78.44 41.60 78.07 41.93
  Q 75.81 43.87 72.77 43.16
  Q 72.25 43.04 72.25 42.50
  L 72.25 11.49
  Q 72.25 10.95 72.78 10.83
  Q 75.51 10.24 77.69 11.64
  Q 78.25 12.00 78.25 12.66
  L 78.25 19.22
  Q 78.25 20.03 78.97 19.67
  Z
  M 92.16 30.78
  A 6.88 6.88 0.0 0 0 85.28 23.90
  A 6.88 6.88 0.0 0 0 78.40 30.78
  A 6.88 6.88 0.0 0 0 85.28 37.66
  A 6.88 6.88 0.0 0 0 92.16 30.78
  Z"
/>
<path fill="#00b289" d="
  M 130.78 30.85
  A 12.83 12.83 0.0 0 1 117.95 43.68
  A 12.83 12.83 0.0 0 1 105.12 30.85
  A 12.83 12.83 0.0 0 1 117.95 18.02
  A 12.83 12.83 0.0 0 1 130.78 30.85
  Z
  M 124.75 30.82
  A 6.78 6.78 0.0 0 0 117.97 24.04
  A 6.78 6.78 0.0 0 0 111.19 30.82
  A 6.78 6.78 0.0 0 0 117.97 37.60
  A 6.78 6.78 0.0 0 0 124.75 30.82
  Z"
/>
<path fill="#00b289" d="
  M 144.86 19.26
  C 150.70 16.35 157.38 19.11 159.63 24.33
  C 161.55 28.75 160.73 36.91 160.76 42.46
  Q 160.76 42.98 160.26 43.12
  Q 157.37 43.93 155.33 42.28
  Q 154.86 41.91 154.85 41.31
  L 154.54 27.66
  Q 154.52 27.12 154.19 26.70
  C 151.00 22.69 144.54 23.25 144.52 29.09
  Q 144.49 35.91 144.50 42.74
  Q 144.50 43.25 143.99 43.25
  L 138.75 43.25
  Q 138.25 43.25 138.25 42.75
  L 138.25 19.00
  Q 138.25 18.47 138.76 18.35
  Q 141.61 17.66 143.93 19.20
  Q 144.38 19.50 144.86 19.26
  Z"
/>
<path fill="#00b289" d="
  M 210.73 19.80
  Q 212.97 18.07 215.85 18.56
  Q 216.25 18.63 216.25 19.04
  L 216.25 42.64
  Q 216.25 43.28 215.61 43.27
  L 212.00 43.20
  Q 211.36 43.19 211.13 42.59
  Q 210.72 41.52 209.56 42.02
  C 199.61 46.32 187.87 39.10 190.41 28.13
  C 192.50 19.08 201.70 15.80 209.96 19.88
  Q 210.37 20.08 210.73 19.80
  Z
  M 210.11 30.77
  A 6.84 6.84 0.0 0 0 203.27 23.93
  A 6.84 6.84 0.0 0 0 196.43 30.77
  A 6.84 6.84 0.0 0 0 203.27 37.61
  A 6.84 6.84 0.0 0 0 210.11 30.77
  Z"
/>
<path fill="#00b289" d="
  M 174.06 25.03
  A 1.38 1.37 28.5 0 0 174.72 27.23
  C 179.34 28.64 185.62 29.89 184.62 36.39
  C 183.32 44.87 170.99 46.23 167.70 37.74
  Q 167.54 37.32 167.93 37.09
  Q 171.69 34.85 174.76 37.44
  Q 175.15 37.77 175.65 37.89
  C 179.05 38.72 180.45 34.75 176.94 33.38
  Q 174.86 32.57 172.80 31.69
  C 160.43 26.40 174.98 10.70 183.30 22.10
  Q 183.73 22.70 183.06 23.00
  L 179.50 24.59
  Q 178.99 24.82 178.53 24.49
  Q 176.01 22.70 174.06 25.03
  Z"
/>
<path fill="#00b289" d="
  M 230.56 18.66
  L 230.47 41.06
  Q 230.47 41.68 229.95 42.04
  Q 227.81 43.53 224.99 43.07
  Q 224.50 42.99 224.50 42.50
  L 224.50 20.76
  A 2.18 2.18 0.0 0 1 226.49 18.59
  L 230.16 18.29
  Q 230.56 18.25 230.56 18.66
  Z"
/>
<circle fill="#ffffff" cx="85.28" cy="30.78" r="6.88"/>
<circle fill="#ffffff" cx="117.97" cy="30.82" r="6.78"/>
<circle fill="#ffffff" cx="203.27" cy="30.77" r="6.84"/>
</svg>
