<?xml version="1.0" encoding="UTF-8" standalone="no"?>
<!DOCTYPE svg PUBLIC "-//W3C//DTD SVG 1.1//EN" "http://www.w3.org/Graphics/SVG/1.1/DTD/svg11.dtd">
<svg xmlns="http://www.w3.org/2000/svg" version="1.1" viewBox="0.00 0.00 82.00 96.00">
<path stroke="#80d9c4" stroke-width="2.00" fill="none" stroke-linecap="butt" vector-effect="non-scaling-stroke" d="
  M 64.87 75.49
  Q 51.57 75.55 23.01 75.43
  C 14.99 75.40 13.29 70.89 13.25 63.54
  Q 13.20 53.43 13.27 43.27
  Q 13.28 42.75 13.80 42.75
  L 18.50 42.75
  Q 19.25 42.75 19.25 42.00
  L 19.25 33.13
  Q 19.25 32.50 18.63 32.50
  L 3.55 32.50
  Q 3.08 32.50 3.07 32.98
  Q 2.83 49.34 3.11 65.70
  C 3.31 77.50 10.73 85.74 23.00 85.75
  Q 46.07 85.76 69.13 85.74
  C 73.19 85.73 75.68 84.24 75.69 80.00
  Q 75.73 59.66 75.76 39.33
  Q 75.77 29.35 74.36 25.33
  C 70.25 13.60 60.40 12.99 48.31 13.00
  Q 35.58 13.00 22.91 13.00
  A 0.40 0.40 0.0 0 0 22.51 13.40
  Q 22.47 36.86 22.53 60.22
  C 22.54 64.31 24.64 66.25 28.81 66.25
  Q 42.24 66.27 55.71 66.24
  Q 56.23 66.24 56.23 65.72
  Q 56.30 52.01 56.22 38.30
  C 56.18 29.85 42.04 32.48 36.50 32.51
  Q 36.00 32.51 36.00 33.01
  L 36.00 42.25
  A 0.50 0.50 0.0 0 0 36.50 42.75
  L 45.25 42.75
  Q 46.00 42.75 46.00 43.50
  L 46.00 55.50
  Q 46.00 56.00 45.50 56.00
  L 33.25 56.00
  A 0.50 0.50 0.0 0 1 32.75 55.50
  L 32.75 23.78
  Q 32.75 23.29 33.24 23.28
  Q 43.21 23.18 53.20 23.24
  C 61.01 23.29 65.46 25.00 65.48 33.50
  Q 65.51 54.18 65.48 74.87
  Q 65.48 75.48 64.87 75.49"
/>
<path fill="#ffffff" d="
  M 0.00 0.00
  L 82.00 0.00
  L 82.00 96.00
  L 0.00 96.00
  L 0.00 0.00
  Z
  M 64.87 75.49
  Q 51.57 75.55 23.01 75.43
  C 14.99 75.40 13.29 70.89 13.25 63.54
  Q 13.20 53.43 13.27 43.27
  Q 13.28 42.75 13.80 42.75
  L 18.50 42.75
  Q 19.25 42.75 19.25 42.00
  L 19.25 33.13
  Q 19.25 32.50 18.63 32.50
  L 3.55 32.50
  Q 3.08 32.50 3.07 32.98
  Q 2.83 49.34 3.11 65.70
  C 3.31 77.50 10.73 85.74 23.00 85.75
  Q 46.07 85.76 69.13 85.74
  C 73.19 85.73 75.68 84.24 75.69 80.00
  Q 75.73 59.66 75.76 39.33
  Q 75.77 29.35 74.36 25.33
  C 70.25 13.60 60.40 12.99 48.31 13.00
  Q 35.58 13.00 22.91 13.00
  A 0.40 0.40 0.0 0 0 22.51 13.40
  Q 22.47 36.86 22.53 60.22
  C 22.54 64.31 24.64 66.25 28.81 66.25
  Q 42.24 66.27 55.71 66.24
  Q 56.23 66.24 56.23 65.72
  Q 56.30 52.01 56.22 38.30
  C 56.18 29.85 42.04 32.48 36.50 32.51
  Q 36.00 32.51 36.00 33.01
  L 36.00 42.25
  A 0.50 0.50 0.0 0 0 36.50 42.75
  L 45.25 42.75
  Q 46.00 42.75 46.00 43.50
  L 46.00 55.50
  Q 46.00 56.00 45.50 56.00
  L 33.25 56.00
  A 0.50 0.50 0.0 0 1 32.75 55.50
  L 32.75 23.78
  Q 32.75 23.29 33.24 23.28
  Q 43.21 23.18 53.20 23.24
  C 61.01 23.29 65.46 25.00 65.48 33.50
  Q 65.51 54.18 65.48 74.87
  Q 65.48 75.48 64.87 75.49
  Z"
/>
<path fill="#00b289" d="
  M 65.48 74.87
  Q 65.51 54.18 65.48 33.50
  C 65.46 25.00 61.01 23.29 53.20 23.24
  Q 43.21 23.18 33.24 23.28
  Q 32.75 23.29 32.75 23.78
  L 32.75 55.50
  A 0.50 0.50 0.0 0 0 33.25 56.00
  L 45.50 56.00
  Q 46.00 56.00 46.00 55.50
  L 46.00 43.50
  Q 46.00 42.75 45.25 42.75
  L 36.50 42.75
  A 0.50 0.50 0.0 0 1 36.00 42.25
  L 36.00 33.01
  Q 36.00 32.51 36.50 32.51
  C 42.04 32.48 56.18 29.85 56.22 38.30
  Q 56.30 52.01 56.23 65.72
  Q 56.23 66.24 55.71 66.24
  Q 42.24 66.27 28.81 66.25
  C 24.64 66.25 22.54 64.31 22.53 60.22
  Q 22.47 36.86 22.51 13.40
  A 0.40 0.40 0.0 0 1 22.91 13.00
  Q 35.58 13.00 48.31 13.00
  C 60.40 12.99 70.25 13.60 74.36 25.33
  Q 75.77 29.35 75.76 39.33
  Q 75.73 59.66 75.69 80.00
  C 75.68 84.24 73.19 85.73 69.13 85.74
  Q 46.07 85.76 23.00 85.75
  C 10.73 85.74 3.31 77.50 3.11 65.70
  Q 2.83 49.34 3.07 32.98
  Q 3.08 32.50 3.55 32.50
  L 18.63 32.50
  Q 19.25 32.50 19.25 33.13
  L 19.25 42.00
  Q 19.25 42.75 18.50 42.75
  L 13.80 42.75
  Q 13.28 42.75 13.27 43.27
  Q 13.20 53.43 13.25 63.54
  C 13.29 70.89 14.99 75.40 23.01 75.43
  Q 51.57 75.55 64.87 75.49
  Q 65.48 75.48 65.48 74.87
  Z"
/>
</svg>
